 <svg display="none">
        <symbol id="logo" width="130" height="47" viewBox="0 0 130 47" xmlns="http://www.w3.org/2000/svg">
            <g id="Name">
                <g id="Group">
                <g id="Group_2">
                <path id="h" d="M4.95672 0H0V35.7986H4.95672V22.5177C4.95672 20.2709 5.51557 18.4984 6.63326 17.2502C7.75095 16.002 9.2817 15.353 11.1769 15.353C12.8049 15.353 14.1655 15.9521 15.2589 17.1004C16.3523 18.2738 16.9112 19.7466 16.9112 21.5191V35.8236H21.8922V21.5191C21.8922 18.2238 20.9932 15.6276 19.1951 13.6804C17.3971 11.7332 15.0402 10.7596 12.1731 10.7596C11.347 10.7596 10.5209 10.8594 9.71906 11.0841C8.89294 11.3088 8.2369 11.5584 7.70235 11.833C7.16781 12.1076 6.65756 12.4072 6.1959 12.7567C5.73424 13.1062 5.41838 13.3558 5.27259 13.5056C5.1268 13.6554 5.00532 13.7552 4.95672 13.8301V0Z" fill="#F0145A"/>
                </g>
                </g>
                <g id="Group_3">
                <g id="Group_4">
                <path id="Vector" d="M32.9726 0H27.8628V35.7689H32.9726V0Z" fill="#323264"/>
                </g>
                <g id="Group_5">
                <path id="Vector_2" d="M63.1114 25.2933L63.3669 22.7383C63.3669 19.3148 62.2428 16.4532 59.9433 14.1538C57.6439 11.8544 54.7824 10.7302 51.3588 10.7302C47.9352 10.7302 44.9715 11.9566 42.5188 14.4093C40.0661 16.862 38.8397 19.7746 38.8397 23.2493C38.8397 26.8262 40.1172 29.8921 42.621 32.447C45.1248 35.002 48.1396 36.2794 51.6143 36.2794C52.9429 36.2794 54.1692 36.075 55.3956 35.7173C56.6219 35.3086 57.6439 34.8998 58.3593 34.491C59.1258 34.0311 59.8922 33.5201 60.5565 32.958C61.2208 32.3959 61.6807 31.9872 61.8851 31.7317C62.0895 31.4762 62.2428 31.3229 62.345 31.1696L59.0236 27.8482L58.2571 28.8191C57.7461 29.4322 56.8774 30.0454 55.6511 30.7097C54.3736 31.374 53.0451 31.6806 51.6143 31.6806C49.6215 31.6806 47.9352 31.0674 46.5045 29.7899C45.0737 28.5125 44.205 27.0306 43.9495 25.2933H63.1114ZM51.3588 15.0736C53.2494 15.0736 54.7824 15.6357 56.0599 16.7087C57.2862 17.8329 58.0527 19.2126 58.3593 20.9499H44.1539C44.6138 19.2126 45.4314 17.8329 46.7089 16.7087C47.9352 15.6357 49.5193 15.0736 51.3588 15.0736Z" fill="#323264"/>
                </g>
                <g id="Group_6">
                <path id="Vector_3" d="M86.9429 34.2866C86.9429 36.5349 86.2786 38.3744 84.8989 39.8052C83.5704 41.1849 81.8841 41.9002 79.7891 41.9002C78.8693 41.9002 77.9496 41.7469 77.0809 41.4914C76.2122 41.2359 75.5479 40.9294 74.9859 40.5717C74.4238 40.214 73.9128 39.8563 73.4018 39.3964C72.9419 38.9365 72.6353 38.6299 72.482 38.4766C72.3287 38.3233 72.2265 38.17 72.1244 38.0679L68.803 41.3892L69.2117 41.9002C69.4672 42.2579 69.9271 42.7178 70.5403 43.2288C71.1535 43.6887 71.8689 44.1997 72.6864 44.7106C73.504 45.1705 74.526 45.5793 75.8034 45.937C77.0809 46.2947 78.4094 46.4991 79.7891 46.4991C83.2638 46.4991 86.1253 45.3238 88.5269 42.9733C90.8774 40.5717 92.0527 37.7102 92.0527 34.2355V11.2412H86.9429V13.7961L86.0742 13.0297C85.5121 12.5187 84.6434 12.0077 83.4171 11.4967C82.1907 10.9857 80.8622 10.7302 79.5336 10.7302C76.4166 10.7302 73.7595 11.9055 71.4601 14.3071C69.1606 16.7087 68.0365 19.5702 68.0365 22.9938C68.0365 26.4174 69.1606 29.2789 71.4601 31.6806C73.7595 34.0822 76.4166 35.2574 79.5336 35.2574C80.4023 35.2574 81.2199 35.1552 82.0885 34.9508C82.9061 34.6954 83.5704 34.4399 84.1325 34.1844C84.6945 33.9289 85.2055 33.6223 85.6654 33.2646C86.1253 32.9069 86.483 32.6514 86.5852 32.5492L86.9429 32.1915V34.2866ZM73.1463 22.9938C73.1463 20.8477 73.8106 19.0593 75.1903 17.5774C76.5699 16.0956 78.2051 15.3291 80.0446 15.3291C81.8841 15.3291 83.5193 16.0956 84.8989 17.5774C86.2275 19.0593 86.9429 20.8477 86.9429 22.9938C86.9429 25.14 86.2275 26.9284 84.8989 28.4103C83.5193 29.8921 81.8841 30.6586 80.0446 30.6586C78.2051 30.6586 76.5699 29.8921 75.1903 28.4103C73.8106 26.9284 73.1463 25.14 73.1463 22.9938Z" fill="#323264"/>
                </g>
                <g id="Group_7">
                <path id="Vector_4" d="M118.724 35.7684V19.9279C118.724 17.3219 117.753 15.1247 115.863 13.3873C113.972 11.5989 111.519 10.7302 108.504 10.7302C107.329 10.7302 106.154 10.8835 105.03 11.1901C103.906 11.5478 102.986 11.9055 102.321 12.3143C101.657 12.7231 100.993 13.1829 100.38 13.745C99.7666 14.256 99.4089 14.6137 99.2045 14.8181C99.0512 15.0225 98.8979 15.1758 98.7957 15.3291L102.117 18.6505L102.781 17.7818C103.19 17.2197 103.906 16.7087 104.979 16.1467C106.052 15.5846 107.227 15.3291 108.504 15.3291C109.986 15.3291 111.213 15.789 112.183 16.6576C113.154 17.5263 113.614 18.6505 113.614 19.9279L104.672 21.4609C102.475 21.8186 100.686 22.6873 99.46 24.0669C98.1825 25.4466 97.5182 27.1328 97.5182 29.1256C97.5182 31.0163 98.3358 32.6514 99.971 34.0822C101.657 35.564 103.701 36.2794 106.205 36.2794C107.074 36.2794 107.891 36.1772 108.709 35.9217C109.577 35.7173 110.242 35.4618 110.804 35.2064C111.366 34.9509 111.877 34.6443 112.337 34.2866C112.797 33.9289 113.103 33.6734 113.308 33.5712C113.461 33.4179 113.563 33.2646 113.614 33.2135V35.7684H118.724ZM106.971 31.6806C105.643 31.6806 104.57 31.374 103.803 30.7608C102.986 30.1476 102.628 29.4322 102.628 28.6147C102.628 27.746 102.884 26.9795 103.446 26.4174C104.008 25.8554 104.774 25.4466 105.694 25.2933L113.614 24.0158V24.5268C113.614 26.8262 113.052 28.5636 111.877 29.841C110.702 31.0674 109.066 31.6806 106.971 31.6806Z" fill="#323264"/>
                </g>
                <g id="Group_8">
                <path id="Vector_5" d="M130 0H124.89V35.7689H130V0Z" fill="#323264"/>
                </g>
                </g>
                </g>
        </symbol>
       
 <symbol id="LAW-COMPANY" width="130" height="7"  viewBox="0 0 130 7"  xmlns="http://www.w3.org/2000/svg">
<g id="LAW-COMPANY">
<path d="M0 0.118455H1.59915V5.72534H5.06396V7.02835H0V0.118455Z" fill="#323264"/>
<path d="M15.5016 5.54766H12.2934L11.6814 7.02835H10.0428L13.1226 0.118455H14.702L17.7917 7.02835H16.1136L15.5016 5.54766ZM14.9982 4.33349L13.9025 1.68799L12.8067 4.33349H14.9982Z" fill="#323264"/>
<path d="M33.5121 0.118455L31.2516 7.02835H29.534L28.0138 2.34936L26.4443 7.02835H24.7366L22.4662 0.118455H24.1245L25.6842 4.97512L27.313 0.118455H28.7937L30.3731 5.01461L31.9821 0.118455H33.5121Z" fill="#323264"/>
<path d="M50.5232 7.1468C49.819 7.1468 49.1807 6.99545 48.6082 6.69273C48.0422 6.38343 47.5947 5.95896 47.2657 5.41933C46.9432 4.87312 46.782 4.25781 46.782 3.5734C46.782 2.88899 46.9432 2.27697 47.2657 1.73734C47.5947 1.19113 48.0422 0.766669 48.6082 0.46395C49.1807 0.15465 49.8223 0 50.5331 0C51.1319 0 51.6716 0.105294 52.152 0.315881C52.6389 0.526468 53.047 0.829187 53.376 1.22404L52.3494 2.17168C51.8821 1.63205 51.303 1.36224 50.612 1.36224C50.1843 1.36224 49.8026 1.45766 49.467 1.6485C49.1313 1.83277 48.8681 2.09271 48.6773 2.42833C48.493 2.76396 48.4009 3.14565 48.4009 3.5734C48.4009 4.00116 48.493 4.38285 48.6773 4.71847C48.8681 5.05409 49.1313 5.31733 49.467 5.50817C49.8026 5.69244 50.1843 5.78457 50.612 5.78457C51.303 5.78457 51.8821 5.51146 52.3494 4.96525L53.376 5.9129C53.047 6.31433 52.6389 6.62034 52.152 6.83092C51.665 7.04151 51.1221 7.1468 50.5232 7.1468Z" fill="#323264"/>
<path d="M62.5933 7.1468C61.876 7.1468 61.2278 6.99215 60.6487 6.68285C60.0761 6.37355 59.6253 5.94909 59.2963 5.40946C58.9738 4.86325 58.8126 4.25123 58.8126 3.5734C58.8126 2.89558 58.9738 2.28685 59.2963 1.74722C59.6253 1.20101 60.0761 0.77325 60.6487 0.46395C61.2278 0.15465 61.876 0 62.5933 0C63.3106 0 63.9555 0.15465 64.5281 0.46395C65.1006 0.77325 65.5514 1.20101 65.8804 1.74722C66.2095 2.28685 66.374 2.89558 66.374 3.5734C66.374 4.25123 66.2095 4.86325 65.8804 5.40946C65.5514 5.94909 65.1006 6.37355 64.5281 6.68285C63.9555 6.99215 63.3106 7.1468 62.5933 7.1468ZM62.5933 5.78457C63.0013 5.78457 63.3698 5.69244 63.6989 5.50817C64.0279 5.31733 64.2846 5.05409 64.4688 4.71847C64.6597 4.38285 64.7551 4.00116 64.7551 3.5734C64.7551 3.14565 64.6597 2.76396 64.4688 2.42833C64.2846 2.09271 64.0279 1.83277 63.6989 1.6485C63.3698 1.45766 63.0013 1.36224 62.5933 1.36224C62.1853 1.36224 61.8168 1.45766 61.4877 1.6485C61.1587 1.83277 60.8987 2.09271 60.7079 2.42833C60.5236 2.76396 60.4315 3.14565 60.4315 3.5734C60.4315 4.00116 60.5236 4.38285 60.7079 4.71847C60.8987 5.05409 61.1587 5.31733 61.4877 5.50817C61.8168 5.69244 62.1853 5.78457 62.5933 5.78457Z" fill="#323264"/>
<path d="M78.7995 7.02835L78.7896 2.88241L76.7561 6.29788H76.0355L74.0119 2.97125V7.02835H72.5115V0.118455H73.8342L76.4205 4.41246L78.9673 0.118455H80.2802L80.2999 7.02835H78.7995Z" fill="#323264"/>
<path d="M89.8659 0.118455C90.478 0.118455 91.0077 0.220458 91.4552 0.424465C91.9093 0.628471 92.2581 0.918029 92.5016 1.29314C92.7451 1.66825 92.8668 2.11245 92.8668 2.62576C92.8668 3.13249 92.7451 3.57669 92.5016 3.95838C92.2581 4.33349 91.9093 4.62305 91.4552 4.82705C91.0077 5.02448 90.478 5.12319 89.8659 5.12319H88.4741V7.02835H86.8749V0.118455H89.8659ZM89.7771 3.82018C90.2575 3.82018 90.6227 3.71818 90.8728 3.51418C91.1229 3.30359 91.2479 3.00745 91.2479 2.62576C91.2479 2.23749 91.1229 1.94135 90.8728 1.73734C90.6227 1.52676 90.2575 1.42146 89.7771 1.42146H88.4741V3.82018H89.7771Z" fill="#323264"/>
<path d="M103.148 5.54766H99.9396L99.3276 7.02835H97.6889L100.769 0.118455H102.348L105.438 7.02835H103.76L103.148 5.54766ZM102.644 4.33349L101.549 1.68799L100.453 4.33349H102.644Z" fill="#323264"/>
<path d="M117.428 0.118455V7.02835H116.115L112.67 2.83306V7.02835H111.09V0.118455H112.413L115.848 4.31375V0.118455H117.428Z" fill="#323264"/>
<path d="M127.315 4.58027V7.02835H125.716V4.56053L123.041 0.118455H124.739L126.585 3.18842L128.43 0.118455H130L127.315 4.58027Z" fill="#323264"/>
</g>
  </symbol>

  <symbol id="slash" xmlns="http://www.w3.org/2000/svg"  viewBox="0 0 21 47" width="21" height="47">
<path fill-rule="evenodd" clip-rule="evenodd" d="M15.1752 0H21L5.82482 47H0L15.1752 0Z" fill="#F0145A"/>
</symbol>

<symbol id="dot" xmlns="http://www.w3.org/2000/svg" width="6" height="7" viewBox="0 0 6 7" >
  <circle cx="3" cy="3.5" r="3" fill="#E6E6F0"/>
</symbol>

<symbol id="facebook" xmlns="http://www.w3.org/2000/svg" width="24" height="25" viewBox="0 0 24 25" >
  <g clip-path="url(#clip0_109239_132)">
    <path d="M24 12.5733C24 5.90541 18.6274 0.5 12 0.5C5.37258 0.5 0 5.90541 0 12.5733C0 18.5995 4.38823 23.5943 10.125 24.5V16.0633H7.07813V12.5733H10.125V9.91343C10.125 6.88755 11.9165 5.21615 14.6576 5.21615C15.9705 5.21615 17.3438 5.45195 17.3438 5.45195V8.42313H15.8306C14.3399 8.42313 13.875 9.35379 13.875 10.3086V12.5733H17.2031L16.6711 16.0633H13.875V24.5C19.6118 23.5943 24 18.5995 24 12.5733Z" />
  </g>
  <defs>
    <clipPath id="clip0_109239_132">
      <rect width="24" height="24"  transform="translate(0 0.5)"/>
    </clipPath>
  </defs>
</symbol>

<symbol id="flag" xmlns="http://www.w3.org/2000/svg" width="32" height="32" viewBox="0 0 32 32" fill="none">
  <path d="M27.1135 6.3054C26.9445 6.1374 26.7455 6.0529 26.5155 6.0529C26.401 6.0529 26.1595 6.1469 25.7925 6.3324C25.425 6.5184 25.035 6.7254 24.6245 6.9564C24.213 7.1859 23.726 7.3939 23.164 7.5799C22.6025 7.7654 22.0825 7.8594 21.604 7.8594C21.162 7.8594 20.772 7.7754 20.436 7.6069C19.3215 7.0849 18.352 6.6954 17.529 6.4384C16.706 6.1819 15.821 6.0529 14.8735 6.0529C13.2375 6.0529 11.374 6.5849 9.285 7.6469C8.854 7.8619 8.545 8.0284 8.345 8.1504L8.1465 6.6949C8.595 6.3054 8.8845 5.7379 8.8845 5.0974C8.8845 3.9239 7.9335 2.9729 6.76 2.9729C5.5865 2.9729 4.6355 3.9239 4.6355 5.0974C4.6355 5.8629 5.0445 6.5284 5.6515 6.9024L8.5215 27.9474C8.607 28.5739 9.143 29.0284 9.7585 29.0284C9.8145 29.0284 9.8715 29.0249 9.929 29.0174C10.613 28.9234 11.092 28.2939 10.9985 27.6099L9.845 19.1514C11.938 18.1129 13.7485 17.5894 15.2715 17.5894C15.918 17.5894 16.5485 17.6859 17.163 17.8809C17.778 18.0764 18.2895 18.2884 18.6965 18.5179C19.1035 18.7479 19.584 18.9609 20.1365 19.1549C20.69 19.3499 21.2365 19.4474 21.776 19.4474C23.139 19.4474 24.7715 18.9339 26.674 17.9074C26.913 17.7834 27.088 17.6614 27.1985 17.5419C27.309 17.4224 27.3645 17.2524 27.3645 17.0314V6.9029C27.3645 6.6734 27.281 6.4739 27.1135 6.3054Z" fill="#F0145A"/>
</symbol>

<symbol id='bag' xmlns="http://www.w3.org/2000/svg" width="26" height="22" viewBox="0 0 26 22" fill="none">
  <path d="M14.232 13.332V12.774C14.232 12.0935 13.6805 11.542 13.0005 11.542C12.32 11.542 11.7685 12.0935 11.7685 12.774V13.332C11.7685 14.0125 12.32 14.564 13.0005 14.564C13.68 14.564 14.232 14.0125 14.232 13.332Z" fill="#F0145A"/>
  <path d="M15.077 14.0136C14.804 14.9071 13.9815 15.5631 13.0005 15.5631C12.019 15.5631 11.1965 14.9071 10.9235 14.0136H2.43904C1.90354 14.0136 1.39754 13.8891 0.943542 13.6731V19.3066C0.943542 20.4066 1.84354 21.3066 2.94354 21.3066H23.0565C24.1565 21.3066 25.0565 20.4066 25.0565 19.3066V13.6736C24.602 13.8896 24.0965 14.0141 23.561 14.0141H15.077V14.0136Z" fill="#F0145A"/>
  <path d="M23.4775 3.8976H18.677C18.387 2.0846 16.8165 0.693604 14.923 0.693604H11.0765C9.18303 0.693604 7.61303 2.0846 7.32253 3.8976H2.52253C1.37653 3.8976 0.439026 4.7976 0.439026 5.8976V10.5141C0.439026 11.6186 1.33453 12.5141 2.43903 12.5141H10.829C10.8575 11.9386 11.1045 11.4216 11.495 11.0476C11.507 11.0361 11.521 11.0271 11.5335 11.0161C11.62 10.9366 11.71 10.8616 11.8085 10.7966C11.8435 10.7731 11.8835 10.7571 11.92 10.7361C12.001 10.6896 12.081 10.6411 12.1685 10.6051C12.237 10.5766 12.311 10.5601 12.383 10.5386C12.445 10.5201 12.504 10.4956 12.5685 10.4826C12.708 10.4541 12.8525 10.4391 13 10.4391C13.148 10.4391 13.292 10.4546 13.4315 10.4826C13.4955 10.4956 13.5545 10.5201 13.6165 10.5386C13.6885 10.5601 13.7625 10.5766 13.831 10.6056C13.918 10.6416 13.9975 10.6896 14.0785 10.7361C14.1155 10.7576 14.1555 10.7736 14.191 10.7971C14.2895 10.8616 14.379 10.9366 14.4655 11.0161C14.478 11.0276 14.4925 11.0366 14.5045 11.0486C14.8955 11.4226 15.142 11.9396 15.1705 12.5151H23.5605C24.665 12.5151 25.5605 11.6196 25.5605 10.5151V5.8986C25.561 4.7976 24.6235 3.8976 23.4775 3.8976ZM9.24803 3.8976C9.50303 3.1271 10.2215 2.5656 11.0765 2.5656H14.923C15.778 2.5656 16.4965 3.1271 16.7515 3.8976H9.24803Z" fill="#F0145A"/>
</symbol>


<symbol id='star' xmlns="http://www.w3.org/2000/svg" width="32" height="32" viewBox="0 0 32 32" fill="none">
  <path d="M16.097 3.55298C9.25252 3.55298 3.68402 9.12148 3.68402 15.966C3.68402 22.811 9.25252 28.38 16.097 28.38C22.9415 28.38 28.51 22.811 28.51 15.966C28.5105 9.12148 22.942 3.55298 16.097 3.55298ZM22.9555 15.0585V15.059L19.362 17.659L20.746 21.889C20.768 21.955 20.7795 22.0255 20.7795 22.0975C20.7795 22.467 20.4805 22.767 20.111 22.767C19.964 22.767 19.829 22.72 19.719 22.6405L16.0975 20.021L12.476 22.6405C12.366 22.72 12.231 22.767 12.0845 22.767C11.7145 22.767 11.415 22.4675 11.415 22.0975C11.415 22.025 11.427 21.955 11.449 21.889L12.8335 17.659L9.24002 15.059V15.0585C9.07202 14.9375 8.96302 14.74 8.96302 14.517C8.96302 14.1475 9.26202 13.8485 9.63202 13.8485H14.0805L15.458 9.63798C15.542 9.36448 15.7965 9.16548 16.098 9.16548C16.399 9.16548 16.654 9.36448 16.7375 9.63798L18.115 13.8485H22.5635C22.933 13.8485 23.2325 14.1475 23.2325 14.517C23.232 14.74 23.123 14.9375 22.9555 15.0585Z" fill="#F0145A"/>
</symbol>


<symbol id="menu" width="32" height="33" viewBox="0 0 32 33"  xmlns="http://www.w3.org/2000/svg">
<g id="Button / Hamburger">
<path id="Vector" d="M7 10.5H25" stroke="#323264" stroke-width="2"/>
<path id="Vector_2" d="M7 16.5H25" stroke="#323264" stroke-width="2"/>
<path id="Vector_3" d="M7 22.5H25" stroke="#323264" stroke-width="2"/>
</g>
</symbol>


<symbol id="logo-375" width="70" height="25" viewBox="0 0 130 47" xmlns="http://www.w3.org/2000/svg">
            <g id="Name">
                <g id="Group">
                <g id="Group_2">
                <path id="h" d="M4.95672 0H0V35.7986H4.95672V22.5177C4.95672 20.2709 5.51557 18.4984 6.63326 17.2502C7.75095 16.002 9.2817 15.353 11.1769 15.353C12.8049 15.353 14.1655 15.9521 15.2589 17.1004C16.3523 18.2738 16.9112 19.7466 16.9112 21.5191V35.8236H21.8922V21.5191C21.8922 18.2238 20.9932 15.6276 19.1951 13.6804C17.3971 11.7332 15.0402 10.7596 12.1731 10.7596C11.347 10.7596 10.5209 10.8594 9.71906 11.0841C8.89294 11.3088 8.2369 11.5584 7.70235 11.833C7.16781 12.1076 6.65756 12.4072 6.1959 12.7567C5.73424 13.1062 5.41838 13.3558 5.27259 13.5056C5.1268 13.6554 5.00532 13.7552 4.95672 13.8301V0Z" fill="#F0145A"/>
                </g>
                </g>
                <g id="Group_3">
                <g id="Group_4">
                <path id="Vector" d="M32.9726 0H27.8628V35.7689H32.9726V0Z" fill="#323264"/>
                </g>
                <g id="Group_5">
                <path id="Vector_2" d="M63.1114 25.2933L63.3669 22.7383C63.3669 19.3148 62.2428 16.4532 59.9433 14.1538C57.6439 11.8544 54.7824 10.7302 51.3588 10.7302C47.9352 10.7302 44.9715 11.9566 42.5188 14.4093C40.0661 16.862 38.8397 19.7746 38.8397 23.2493C38.8397 26.8262 40.1172 29.8921 42.621 32.447C45.1248 35.002 48.1396 36.2794 51.6143 36.2794C52.9429 36.2794 54.1692 36.075 55.3956 35.7173C56.6219 35.3086 57.6439 34.8998 58.3593 34.491C59.1258 34.0311 59.8922 33.5201 60.5565 32.958C61.2208 32.3959 61.6807 31.9872 61.8851 31.7317C62.0895 31.4762 62.2428 31.3229 62.345 31.1696L59.0236 27.8482L58.2571 28.8191C57.7461 29.4322 56.8774 30.0454 55.6511 30.7097C54.3736 31.374 53.0451 31.6806 51.6143 31.6806C49.6215 31.6806 47.9352 31.0674 46.5045 29.7899C45.0737 28.5125 44.205 27.0306 43.9495 25.2933H63.1114ZM51.3588 15.0736C53.2494 15.0736 54.7824 15.6357 56.0599 16.7087C57.2862 17.8329 58.0527 19.2126 58.3593 20.9499H44.1539C44.6138 19.2126 45.4314 17.8329 46.7089 16.7087C47.9352 15.6357 49.5193 15.0736 51.3588 15.0736Z" fill="#323264"/>
                </g>
                <g id="Group_6">
                <path id="Vector_3" d="M86.9429 34.2866C86.9429 36.5349 86.2786 38.3744 84.8989 39.8052C83.5704 41.1849 81.8841 41.9002 79.7891 41.9002C78.8693 41.9002 77.9496 41.7469 77.0809 41.4914C76.2122 41.2359 75.5479 40.9294 74.9859 40.5717C74.4238 40.214 73.9128 39.8563 73.4018 39.3964C72.9419 38.9365 72.6353 38.6299 72.482 38.4766C72.3287 38.3233 72.2265 38.17 72.1244 38.0679L68.803 41.3892L69.2117 41.9002C69.4672 42.2579 69.9271 42.7178 70.5403 43.2288C71.1535 43.6887 71.8689 44.1997 72.6864 44.7106C73.504 45.1705 74.526 45.5793 75.8034 45.937C77.0809 46.2947 78.4094 46.4991 79.7891 46.4991C83.2638 46.4991 86.1253 45.3238 88.5269 42.9733C90.8774 40.5717 92.0527 37.7102 92.0527 34.2355V11.2412H86.9429V13.7961L86.0742 13.0297C85.5121 12.5187 84.6434 12.0077 83.4171 11.4967C82.1907 10.9857 80.8622 10.7302 79.5336 10.7302C76.4166 10.7302 73.7595 11.9055 71.4601 14.3071C69.1606 16.7087 68.0365 19.5702 68.0365 22.9938C68.0365 26.4174 69.1606 29.2789 71.4601 31.6806C73.7595 34.0822 76.4166 35.2574 79.5336 35.2574C80.4023 35.2574 81.2199 35.1552 82.0885 34.9508C82.9061 34.6954 83.5704 34.4399 84.1325 34.1844C84.6945 33.9289 85.2055 33.6223 85.6654 33.2646C86.1253 32.9069 86.483 32.6514 86.5852 32.5492L86.9429 32.1915V34.2866ZM73.1463 22.9938C73.1463 20.8477 73.8106 19.0593 75.1903 17.5774C76.5699 16.0956 78.2051 15.3291 80.0446 15.3291C81.8841 15.3291 83.5193 16.0956 84.8989 17.5774C86.2275 19.0593 86.9429 20.8477 86.9429 22.9938C86.9429 25.14 86.2275 26.9284 84.8989 28.4103C83.5193 29.8921 81.8841 30.6586 80.0446 30.6586C78.2051 30.6586 76.5699 29.8921 75.1903 28.4103C73.8106 26.9284 73.1463 25.14 73.1463 22.9938Z" fill="#323264"/>
                </g>
                <g id="Group_7">
                <path id="Vector_4" d="M118.724 35.7684V19.9279C118.724 17.3219 117.753 15.1247 115.863 13.3873C113.972 11.5989 111.519 10.7302 108.504 10.7302C107.329 10.7302 106.154 10.8835 105.03 11.1901C103.906 11.5478 102.986 11.9055 102.321 12.3143C101.657 12.7231 100.993 13.1829 100.38 13.745C99.7666 14.256 99.4089 14.6137 99.2045 14.8181C99.0512 15.0225 98.8979 15.1758 98.7957 15.3291L102.117 18.6505L102.781 17.7818C103.19 17.2197 103.906 16.7087 104.979 16.1467C106.052 15.5846 107.227 15.3291 108.504 15.3291C109.986 15.3291 111.213 15.789 112.183 16.6576C113.154 17.5263 113.614 18.6505 113.614 19.9279L104.672 21.4609C102.475 21.8186 100.686 22.6873 99.46 24.0669C98.1825 25.4466 97.5182 27.1328 97.5182 29.1256C97.5182 31.0163 98.3358 32.6514 99.971 34.0822C101.657 35.564 103.701 36.2794 106.205 36.2794C107.074 36.2794 107.891 36.1772 108.709 35.9217C109.577 35.7173 110.242 35.4618 110.804 35.2064C111.366 34.9509 111.877 34.6443 112.337 34.2866C112.797 33.9289 113.103 33.6734 113.308 33.5712C113.461 33.4179 113.563 33.2646 113.614 33.2135V35.7684H118.724ZM106.971 31.6806C105.643 31.6806 104.57 31.374 103.803 30.7608C102.986 30.1476 102.628 29.4322 102.628 28.6147C102.628 27.746 102.884 26.9795 103.446 26.4174C104.008 25.8554 104.774 25.4466 105.694 25.2933L113.614 24.0158V24.5268C113.614 26.8262 113.052 28.5636 111.877 29.841C110.702 31.0674 109.066 31.6806 106.971 31.6806Z" fill="#323264"/>
                </g>
                <g id="Group_8">
                <path id="Vector_5" d="M130 0H124.89V35.7689H130V0Z" fill="#323264"/>
                </g>
                </g>
                </g>
        </symbol>


 <symbol id="LAW-COMPANY-375" width="70" height="4"  viewBox="0 0 130 7"  xmlns="http://www.w3.org/2000/svg">
<g id="LAW-COMPANY-375">
<path d="M0 0.118455H1.59915V5.72534H5.06396V7.02835H0V0.118455Z" fill="#323264"/>
<path d="M15.5016 5.54766H12.2934L11.6814 7.02835H10.0428L13.1226 0.118455H14.702L17.7917 7.02835H16.1136L15.5016 5.54766ZM14.9982 4.33349L13.9025 1.68799L12.8067 4.33349H14.9982Z" fill="#323264"/>
<path d="M33.5121 0.118455L31.2516 7.02835H29.534L28.0138 2.34936L26.4443 7.02835H24.7366L22.4662 0.118455H24.1245L25.6842 4.97512L27.313 0.118455H28.7937L30.3731 5.01461L31.9821 0.118455H33.5121Z" fill="#323264"/>
<path d="M50.5232 7.1468C49.819 7.1468 49.1807 6.99545 48.6082 6.69273C48.0422 6.38343 47.5947 5.95896 47.2657 5.41933C46.9432 4.87312 46.782 4.25781 46.782 3.5734C46.782 2.88899 46.9432 2.27697 47.2657 1.73734C47.5947 1.19113 48.0422 0.766669 48.6082 0.46395C49.1807 0.15465 49.8223 0 50.5331 0C51.1319 0 51.6716 0.105294 52.152 0.315881C52.6389 0.526468 53.047 0.829187 53.376 1.22404L52.3494 2.17168C51.8821 1.63205 51.303 1.36224 50.612 1.36224C50.1843 1.36224 49.8026 1.45766 49.467 1.6485C49.1313 1.83277 48.8681 2.09271 48.6773 2.42833C48.493 2.76396 48.4009 3.14565 48.4009 3.5734C48.4009 4.00116 48.493 4.38285 48.6773 4.71847C48.8681 5.05409 49.1313 5.31733 49.467 5.50817C49.8026 5.69244 50.1843 5.78457 50.612 5.78457C51.303 5.78457 51.8821 5.51146 52.3494 4.96525L53.376 5.9129C53.047 6.31433 52.6389 6.62034 52.152 6.83092C51.665 7.04151 51.1221 7.1468 50.5232 7.1468Z" fill="#323264"/>
<path d="M62.5933 7.1468C61.876 7.1468 61.2278 6.99215 60.6487 6.68285C60.0761 6.37355 59.6253 5.94909 59.2963 5.40946C58.9738 4.86325 58.8126 4.25123 58.8126 3.5734C58.8126 2.89558 58.9738 2.28685 59.2963 1.74722C59.6253 1.20101 60.0761 0.77325 60.6487 0.46395C61.2278 0.15465 61.876 0 62.5933 0C63.3106 0 63.9555 0.15465 64.5281 0.46395C65.1006 0.77325 65.5514 1.20101 65.8804 1.74722C66.2095 2.28685 66.374 2.89558 66.374 3.5734C66.374 4.25123 66.2095 4.86325 65.8804 5.40946C65.5514 5.94909 65.1006 6.37355 64.5281 6.68285C63.9555 6.99215 63.3106 7.1468 62.5933 7.1468ZM62.5933 5.78457C63.0013 5.78457 63.3698 5.69244 63.6989 5.50817C64.0279 5.31733 64.2846 5.05409 64.4688 4.71847C64.6597 4.38285 64.7551 4.00116 64.7551 3.5734C64.7551 3.14565 64.6597 2.76396 64.4688 2.42833C64.2846 2.09271 64.0279 1.83277 63.6989 1.6485C63.3698 1.45766 63.0013 1.36224 62.5933 1.36224C62.1853 1.36224 61.8168 1.45766 61.4877 1.6485C61.1587 1.83277 60.8987 2.09271 60.7079 2.42833C60.5236 2.76396 60.4315 3.14565 60.4315 3.5734C60.4315 4.00116 60.5236 4.38285 60.7079 4.71847C60.8987 5.05409 61.1587 5.31733 61.4877 5.50817C61.8168 5.69244 62.1853 5.78457 62.5933 5.78457Z" fill="#323264"/>
<path d="M78.7995 7.02835L78.7896 2.88241L76.7561 6.29788H76.0355L74.0119 2.97125V7.02835H72.5115V0.118455H73.8342L76.4205 4.41246L78.9673 0.118455H80.2802L80.2999 7.02835H78.7995Z" fill="#323264"/>
<path d="M89.8659 0.118455C90.478 0.118455 91.0077 0.220458 91.4552 0.424465C91.9093 0.628471 92.2581 0.918029 92.5016 1.29314C92.7451 1.66825 92.8668 2.11245 92.8668 2.62576C92.8668 3.13249 92.7451 3.57669 92.5016 3.95838C92.2581 4.33349 91.9093 4.62305 91.4552 4.82705C91.0077 5.02448 90.478 5.12319 89.8659 5.12319H88.4741V7.02835H86.8749V0.118455H89.8659ZM89.7771 3.82018C90.2575 3.82018 90.6227 3.71818 90.8728 3.51418C91.1229 3.30359 91.2479 3.00745 91.2479 2.62576C91.2479 2.23749 91.1229 1.94135 90.8728 1.73734C90.6227 1.52676 90.2575 1.42146 89.7771 1.42146H88.4741V3.82018H89.7771Z" fill="#323264"/>
<path d="M103.148 5.54766H99.9396L99.3276 7.02835H97.6889L100.769 0.118455H102.348L105.438 7.02835H103.76L103.148 5.54766ZM102.644 4.33349L101.549 1.68799L100.453 4.33349H102.644Z" fill="#323264"/>
<path d="M117.428 0.118455V7.02835H116.115L112.67 2.83306V7.02835H111.09V0.118455H112.413L115.848 4.31375V0.118455H117.428Z" fill="#323264"/>
<path d="M127.315 4.58027V7.02835H125.716V4.56053L123.041 0.118455H124.739L126.585 3.18842L128.43 0.118455H130L127.315 4.58027Z" fill="#323264"/>
</g>
  </symbol>


  <symbol id="slash-375" xmlns="http://www.w3.org/2000/svg"  viewBox="0 0 21 47" width="11" height="26">
<path fill-rule="evenodd" clip-rule="evenodd" d="M15.1752 0H21L5.82482 47H0L15.1752 0Z" fill="#F0145A"/>
</symbol>


<symbol id="facebook-375" xmlns="http://www.w3.org/2000/svg" width="38" height="38" viewBox="0 0 24 25" >
  <g clip-path="url(#clip0_109239_132)">
    <path d="M24 12.5733C24 5.90541 18.6274 0.5 12 0.5C5.37258 0.5 0 5.90541 0 12.5733C0 18.5995 4.38823 23.5943 10.125 24.5V16.0633H7.07813V12.5733H10.125V9.91343C10.125 6.88755 11.9165 5.21615 14.6576 5.21615C15.9705 5.21615 17.3438 5.45195 17.3438 5.45195V8.42313H15.8306C14.3399 8.42313 13.875 9.35379 13.875 10.3086V12.5733H17.2031L16.6711 16.0633H13.875V24.5C19.6118 23.5943 24 18.5995 24 12.5733Z" />
  </g>
  <defs>
    <clipPath id="clip0_109239_132">
      <rect width="24" height="24"  transform="translate(0 0.5)"/>
    </clipPath>
  </defs>
</symbol>

<symbol id='arrow-right' xmlns="http://www.w3.org/2000/svg" width="32" height="32" viewBox="0 0 32 32">
  <circle cx="16" cy="16" r="16"/>
  <path d="M13.5 23.5L20.5 16.5L13.5 9.5" stroke="#24A3FF" stroke-width="2"/>
</symbol>

<symbol id='arrow-right-active' xmlns="http://www.w3.org/2000/svg" width="32" height="32" viewBox="0 0 32 32" >
  <circle cx="16" cy="16" r="16" fill="#EDEDF7"/>
  <path d="M13.5 23.5L20.5 16.5L13.5 9.5" stroke="#F0145A" stroke-width="2"/>
</symbol>





</svg>